PathFileType	4	(X/Y/Z)	Patient4_TMGait_0pt5_01_right_11.trc.trc
DataRate	CameraRate	NumFrames	NumMarkers	Units	OrigDataRate	OrigDataStartFrame	OrigNumFrames
73.298429319372	73.298429319372	4	33	mm	73.298429319372	89	       141
Frame#	Time	L.ASIS			Sacral			L.Shoulder			Chest			R.Shoulder			Neck			R.ASIS			R.Thigh.Superior			R.Thigh.Lateral			R.Thigh.Inferior			R.Patella			L.Thigh.Superior			L.Thigh.Lateral			L.Thigh.Inferior			L.Patella			L.Shank.Superior			L.Shank.Lateral			L.Shank.Inferior			R.Shank.Superior			R.Shank.Lateral			R.Shank.Inferior			R.Heel			R.Midfoot.Superior			R.Midfoot.Lateral			R.Toe			L.Heel			L.Midfoot.Lateral			L.Midfoot.Superior			L.Toe			L.Elbow			L.Wrist			R.Elbow			R.Wrist			
		X1	Y1	Z1	X2	Y2	Z2	X3	Y3	Z3	X4	Y4	Z4	X5	Y5	Z5	X6	Y6	Z6	X7	Y7	Z7	X8	Y8	Z8	X9	Y9	Z9	X10	Y10	Z10	X11	Y11	Z11	X12	Y12	Z12	X13	Y13	Z13	X14	Y14	Z14	X15	Y15	Z15	X16	Y16	Z16	X17	Y17	Z17	X18	Y18	Z18	X19	Y19	Z19	X20	Y20	Z20	X21	Y21	Z21	X22	Y22	Z22	X23	Y23	Z23	X24	Y24	Z24	X25	Y25	Z25	X26	Y26	Z26	X27	Y27	Z27	X28	Y28	Z28	X29	Y29	Z29	X30	Y30	Z30	X31	Y31	Z31	X32	Y32	Z32	X33	Y33	Z33	

89	15.320571428571	775.208469676760	964.767263453167	301.391615971986	560.997854872121	1006.364204774437	461.340533283135	718.329873962355	1446.952795890833	313.564996378002	828.857706468155	1364.560163559747	463.941209595930	751.445557087464	1422.817900083881	646.983365766280	723.238748411614	1495.894085730471	469.947859721847	787.261026075852	937.517151284495	575.579365351216	800.330515545087	728.063071537819	560.624380599158	699.662724212736	631.550549349398	620.309073063233	775.038085923040	563.244203363992	551.256631842752	757.028787590193	461.648076168876	567.012270900363	840.464228615636	763.815415225644	337.524836794497	767.963557785114	637.282782237322	276.259804938690	859.615381637249	568.938784291853	341.317493599837	867.497416576158	496.576364774485	352.076354396157	843.511956724832	422.427137594459	345.056834954924	761.696868768270	304.680857446712	290.592638802563	811.990601380432	195.853717584494	364.473682106306	689.749593303903	391.048758763470	569.381360183723	575.559929114915	331.759544360477	625.734461446340	581.090738745878	222.847502248828	571.854729419774	392.147620179617	112.075849148307	537.673076854240	571.085737809909	107.912504608521	576.393726829046	466.822936623286	70.151487095539	608.003145919578	665.852587168458	33.907689802428	595.865908617502	685.169919924042	38.059299990051	398.050226561328	765.054739509847	35.673725925689	322.868492834740	846.281864543220	96.633348346513	355.274541051496	976.285299089083	43.654892797687	337.301303791896	642.666993220436	1110.530798620373	170.264184001396	723.465596808518	860.590937911305	155.493023664349	811.469276676676	1080.444217013012	755.471512738521	1058.163909131013	1022.171630291614	733.593651407246	
90	15.334214285714	775.952826127417	964.665977567695	299.156113609883	561.124741381479	1006.524937288559	458.298003575357	719.733554717189	1447.003103177773	309.899953725272	829.249330247602	1364.889782650774	461.156626357889	750.798488150729	1423.591727941176	643.626310970301	723.714819531653	1496.353720731631	466.124156275751	786.912128846138	938.252145928109	573.325607466812	805.029661681182	729.833282275801	559.242310971052	707.295403318378	631.350763429417	619.266099436892	784.618870711939	564.177332602275	550.441915585420	767.833610134487	460.804960048986	567.458877568569	839.589077396063	762.555270796568	334.612227973024	764.993584707754	636.988177492734	274.261747602984	855.934208401587	567.777685354996	339.163026900953	863.089169175537	495.708319844963	350.285353773105	838.784327859263	421.652649592546	343.505723761485	756.351598619944	304.178216644469	289.409850039401	805.934403221612	195.395772514474	363.828093505996	698.071407321637	391.351115665341	569.518991097366	581.881256998503	336.182055382292	625.868241113975	583.767791492393	227.082733209043	572.510810072699	391.389642747807	124.881609263601	538.631712732918	569.290154350437	111.225397865736	577.282878991879	463.538874838672	78.511836642128	608.488268071014	659.501026743604	32.945938291649	596.131593382464	678.296157136721	37.977437923768	397.965044690368	758.168844618760	35.533714628009	322.714918192488	839.461697592022	96.406128693907	355.151834176124	969.484896823999	43.305028540256	337.285955076989	650.313585739743	1109.741634082022	164.718149097983	739.686027348161	862.808170261435	148.314956181751	800.817852754335	1078.894448386574	751.930559295231	1043.608453496383	1002.844660020610	735.436392743258	
91	15.347857142857	776.482938761774	964.619477035562	297.169654301843	561.092926403481	1006.697625541739	455.466815678268	721.103327037178	1447.028580604543	306.306367561117	829.518142271614	1365.234841078205	458.515426138586	749.975901302252	1424.455752605604	640.356369521165	724.112461182749	1496.853764818137	462.340210316672	786.453534152627	939.087861987111	571.377206762999	810.167435881811	732.050323192752	557.817796521837	715.936822886946	631.375566598453	618.303952539942	795.206994568121	565.597325402411	549.516031330558	779.859817408810	460.457734628624	567.701308868669	838.432326752345	761.301137590182	331.842537099408	761.762493991973	636.794734000763	272.354149918730	851.872167738007	566.672784388658	337.193801004195	858.269564606023	494.908078317801	348.616670052180	833.721180157042	420.989519957750	342.029593397566	750.770972775458	303.739666187303	288.266183874340	799.751942751194	195.015983029588	363.186039336595	707.684470579359	392.054105906173	569.559204148428	589.633948948713	341.160470777660	626.030889290544	587.604154417431	232.056299146858	573.121047129088	392.026361764459	139.177174007931	539.690705734315	568.429017263798	115.446740184813	578.177061054945	461.301896714148	88.211609564509	609.036745280885	653.617928438944	32.012952440504	596.367199942986	671.427352091871	37.924349735715	397.852824138891	751.291511346751	35.416295066836	322.551517626178	832.644442045925	96.207021699737	355.006607328641	962.679305983465	43.000624504766	337.254687682219	658.511615806343	1109.046982641820	159.171806818997	756.279238879950	865.412538035555	141.241110294217	789.729206894211	1077.661646110284	748.230147389844	1026.947986049773	983.410636004441	736.816859151615	
92	15.361500000000	776.807248592345	964.637981810665	295.431361886990	560.898422141528	1006.887078730510	452.847847848423	722.399623166001	1447.028849031806	302.828985563818	829.647007231065	1365.596188570108	456.042880245129	748.975555850584	1425.393297724542	637.214014972486	724.416074475610	1497.384782611675	458.646106653256	785.910751114522	940.016915099918	569.737487751177	815.589082836716	734.724880861849	556.292351517205	725.373352604026	631.717289453557	617.375589698327	806.512946109814	567.569330848615	548.421098361052	792.837625095586	460.711548324849	567.660779372846	837.035779457434	760.086948723671	329.271925898566	758.337808915669	636.695103283867	270.597886682286	847.534698073961	565.638241329902	335.446282454435	853.142269148824	494.176366487071	347.136672556478	828.414219760938	420.433082399153	340.688935437155	745.031344693112	303.379751004362	287.200302985460	793.476746612697	194.709600069430	362.584603192605	718.369579126838	393.225082696703	569.446509378284	598.645871992094	346.646267943293	626.169206498325	592.550745103579	237.713605587057	573.641078065008	394.116990650814	154.579742935628	540.837490201329	568.611752867541	120.560439061511	579.026707436676	460.285474033816	99.025890842631	609.633492624985	648.452844636259	31.265648591326	596.496520662454	664.563391731200	37.899156369526	397.718480372154	744.421908953867	35.324689688157	322.383947300987	825.827528380586	96.041872076161	354.848658001231	955.867032229323	42.746669327538	337.204496498504	667.199214652171	1108.479809336133	153.680863062122	773.195962635314	868.434518029840	134.351975311924	778.327921520980	1076.765149510306	744.443232913388	1008.187337241061	964.106105859441	737.677785102396	
